<?xml version="1.0" encoding="UTF-8"?>
<svg version="1.1" xmlns="http://www.w3.org/2000/svg" width="1024" height="1024">
<path d="M0 0 C337.92 0 675.84 0 1024 0 C1024 337.92 1024 675.84 1024 1024 C686.08 1024 348.16 1024 0 1024 C0 686.08 0 348.16 0 0 Z " fill="#FBFBFB" transform="translate(0,0)"/>
<path d="M0 0 C2.94110414 2.37913584 5.83011944 4.80927081 8.70703125 7.265625 C12.31676309 10.30888623 16.0844522 13.12482204 19.875 15.9375 C26.76862784 21.05801312 33.54641476 26.30535945 40.27783203 31.63671875 C43.20149201 33.9511102 46.13143588 36.25749627 49.0625 38.5625 C49.64563965 39.02108398 50.2287793 39.47966797 50.82958984 39.95214844 C55.14252073 43.33856227 59.48151012 46.68991994 63.83325195 50.02636719 C68.48978865 53.59922861 73.12073812 57.20439883 77.75 60.8125 C83.72616649 65.46920382 89.72485191 70.09436239 95.75 74.6875 C101.40939271 79.00329588 107.03419484 83.3584145 112.62207031 87.76635742 C117.39780962 91.53278401 122.19628953 95.26933009 127 99 C132.45060273 103.23355034 137.89109541 107.47912349 143.3125 111.75 C149.83502099 116.88582128 156.41106024 121.94983109 163 127 C174.89614787 136.12643405 186.73000285 145.33201052 198.5546875 154.55078125 C206.63192227 160.84471908 214.73504953 167.10159191 222.87817383 173.31005859 C227.9451295 177.17876771 232.9691243 181.09858236 237.97363281 185.04760742 C241.79427072 188.06028697 245.63811749 191.04041012 249.5 194 C254.50183694 197.83461582 259.46720141 201.71301533 264.41796875 205.61328125 C269.26367366 209.42821121 274.12941541 213.21690204 279 217 C284.45057233 221.23358812 289.89117439 225.47902339 295.3125 229.75 C299.68667636 233.19541289 304.08110446 236.61213563 308.5 240 C312.91889635 243.387865 317.3132776 246.80464485 321.6875 250.25 C327.0274811 254.45587226 332.38332903 258.64073381 337.75 262.8125 C338.49958984 263.39547852 339.24917969 263.97845703 340.02148438 264.57910156 C343.97809829 267.65515843 347.93815045 270.72668532 351.90234375 273.79296875 C352.70381836 274.41389404 353.50529297 275.03481934 354.33105469 275.67456055 C355.85268346 276.8533026 357.37539396 278.03065021 358.89941406 279.20629883 C374.94819013 291.64725365 374.94819013 291.64725365 376.4140625 301.89453125 C376.8077739 309.96561499 374.90007156 316.4297753 369.61328125 322.625 C364.84108736 327.01803328 358.95423416 329.10343724 352.5625 329.4375 C343.60748669 328.97631935 336.83996308 323.72582227 330.125 318.25 C328.64997627 317.06578912 327.17339291 315.88351846 325.6953125 314.703125 C324.99407257 314.14264465 324.29283264 313.58216431 323.57034302 313.00469971 C320.82467204 310.86325564 318.0271536 308.81014456 315.20654297 306.76855469 C314.22797333 306.0594696 313.24940369 305.35038452 312.24118042 304.61981201 C311.50159088 304.08527405 310.76200134 303.55073608 310 303 C310.00151888 303.63810104 310.00303776 304.27620209 310.00460267 304.93363953 C310.09411641 342.75330525 310.16274695 380.5729553 310.20426132 418.39270526 C310.20926414 422.93384145 310.21444143 427.47497742 310.21972656 432.01611328 C310.22130043 433.37219997 310.22130043 433.37219997 310.22290608 434.75568235 C310.24031096 449.39376036 310.27184912 464.03177553 310.30861118 478.66981626 C310.34601828 493.68997579 310.36823536 508.71010242 310.37635398 523.73030663 C310.38184223 532.99847747 310.39917594 542.26647068 310.43166587 551.53458685 C310.45281089 557.89022287 310.45920007 564.24576708 310.45400551 570.60143572 C310.4514437 574.26828113 310.45536867 577.93481616 310.4768219 581.60160637 C310.49992496 585.5794895 310.49194552 589.55696922 310.48101807 593.53491211 C310.49849512 595.26839401 310.49849512 595.26839401 310.51632524 597.03689575 C310.4594625 604.6864552 309.36043951 610.02578158 304.2890625 616.0234375 C303.73992188 616.46945312 303.19078125 616.91546875 302.625 617.375 C302.08101562 617.83648438 301.53703125 618.29796875 300.9765625 618.7734375 C295.10978357 622.41408687 289.21329037 622.28687691 282.54440689 622.26285553 C281.48693461 622.2669608 280.42946233 622.27106606 279.33994544 622.27529573 C275.7786875 622.28664985 272.21758392 622.28371953 268.65631104 622.28088379 C266.08438239 622.28605024 263.51245535 622.29207632 260.94053054 622.29889059 C254.60195562 622.31404289 248.2634144 622.31843632 241.92482326 622.3195487 C234.33298548 622.32137672 226.74117884 622.33471391 219.14935446 622.34824235 C200.8013548 622.3803578 182.45335848 622.39216793 164.10533576 622.40173985 C155.42632095 622.40641171 146.74730879 622.41361696 138.06829604 622.4211306 C108.36114788 622.44679983 78.6540012 622.46823945 48.94684219 622.4751358 C47.08213202 622.47557907 45.21742184 622.47602264 43.35271166 622.47646651 C41.48349515 622.47690779 39.61427863 622.47734875 37.74506211 622.4777894 C33.99508047 622.47867451 30.24509883 622.47956874 26.49511719 622.48046875 C25.10045179 622.48079692 25.10045179 622.48079692 23.67761133 622.48113173 C-6.47756597 622.48839469 -36.63264717 622.52024255 -66.78778766 622.56684948 C-98.66738808 622.61603165 -130.54693356 622.64348076 -162.42657304 622.64587164 C-165.92547752 622.64621455 -169.42438198 622.64664541 -172.92328644 622.6471405 C-173.78481911 622.64725204 -174.64635177 622.64736358 -175.53399149 622.64747849 C-189.40298141 622.6497805 -203.27187274 622.67183253 -217.14082936 622.70091461 C-231.07792629 622.72963451 -245.01489673 622.73612429 -258.95201513 622.72003466 C-267.23291141 622.71111764 -275.51339958 622.71886029 -283.79424229 622.75051167 C-289.97611405 622.77229035 -296.15756407 622.76274379 -302.3394275 622.74096793 C-304.84143389 622.73703812 -307.34348095 622.74328382 -309.84543011 622.76065665 C-313.24467727 622.78276829 -316.64185318 622.76792129 -320.04104233 622.7438736 C-321.50073183 622.76665918 -321.50073183 622.76665918 -322.98991001 622.78990507 C-330.15615643 622.68033372 -335.44147678 620.58194292 -341 616 C-346.30787399 608.95185711 -346.71916036 601.91342427 -346.63923645 593.33236694 C-346.64759213 592.09058988 -346.6559478 590.84881282 -346.66455668 589.56940615 C-346.6826176 586.14824842 -346.67855361 582.72844954 -346.6648711 579.30736089 C-346.65556631 575.60873903 -346.6751812 571.91025313 -346.69119263 568.21166992 C-346.71498076 561.81223861 -346.72065448 555.41299984 -346.71384621 549.01353073 C-346.70402923 539.76114313 -346.72180873 530.50896837 -346.74621352 521.25661524 C-346.7850689 506.24350047 -346.80176403 491.23044676 -346.80444336 476.21728516 C-346.80709293 461.63782624 -346.82022874 447.05843862 -346.84741211 432.47900391 C-346.84908549 431.57955848 -346.85075887 430.68011305 -346.85248295 429.7534117 C-346.86094274 425.24092818 -346.8696081 420.72844509 -346.87837565 416.21596217 C-346.95078677 378.81065209 -346.98720025 341.40537563 -347 304 C-349.57028361 305.92674205 -352.14038248 307.85373039 -354.71044922 309.78076172 C-355.43475632 310.32371384 -356.15906342 310.86666595 -356.90531921 311.42607117 C-360.48727018 314.11199223 -364.06591645 316.80190511 -367.6328125 319.5078125 C-368.79656257 320.38062506 -369.96060035 321.25305422 -371.125 322.125 C-371.71796875 322.57875 -372.3109375 323.0325 -372.921875 323.5 C-379.53725667 328.42510794 -385.86871286 330.14794642 -394 329 C-400.80831883 326.75725968 -406.16547985 323.1145051 -410 317 C-413.1984276 310.52594137 -413.13221727 302.48587349 -411.3828125 295.5546875 C-408.94491758 290.05324322 -404.66744675 286.61782953 -400 283 C-399.03707031 282.24976563 -398.07414063 281.49953125 -397.08203125 280.7265625 C-394.88646999 279.02639945 -392.68188545 277.33860504 -390.47265625 275.65625 C-387.05970606 273.05372 -383.68258699 270.40768724 -380.3125 267.75 C-374.89144579 263.47868081 -369.45053733 259.23362777 -364 255 C-358.65509121 250.84789584 -353.31767476 246.6869316 -348 242.5 C-340.46324551 236.56715971 -332.88902041 230.68278013 -325.31445312 224.79833984 C-321.54184364 221.86700636 -317.77101849 218.93337972 -314 216 C-313.26144775 215.42564209 -312.52289551 214.85128418 -311.76196289 214.25952148 C-307.94853535 211.29389134 -304.13580037 208.32737734 -300.32421875 205.359375 C-292.69540508 199.42016436 -285.05493357 193.49764033 -277.38671875 187.609375 C-271.01278359 182.70605374 -264.67553266 177.7551514 -258.33056641 172.81445312 C-253.80632891 169.29212618 -249.27984338 165.77268848 -244.75341797 162.25317383 C-240.98892354 159.32582387 -237.22565082 156.39692983 -233.46484375 153.46484375 C-226.08510831 147.71383278 -218.68988089 141.9855567 -211.25 136.3125 C-205.58774766 131.99440252 -199.96044062 127.63656793 -194.36914062 123.22705078 C-189.67772405 119.52784491 -184.96726624 115.85367746 -180.25 112.1875 C-179.49211182 111.598479 -178.73422363 111.00945801 -177.95336914 110.40258789 C-176.40713232 109.20108369 -174.86082659 107.99966818 -173.31445312 106.79833984 C-169.54184366 103.86700637 -165.77099645 100.93340802 -162 98 C-160.50000877 96.83332206 -159.00000876 95.6666554 -157.5 94.5 C-156.38625 93.63375 -156.38625 93.63375 -155.25 92.75 C-135 77 -114.75 61.25 -94.5 45.5 C-93.75709717 44.92217773 -93.01419434 44.34435547 -92.2487793 43.74902344 C-90.75288338 42.58556688 -89.25695255 41.42215522 -87.76098633 40.25878906 C-83.94790224 37.29338002 -80.13547936 34.32712738 -76.32421875 31.359375 C-68.7106377 25.43202331 -61.08992444 19.51543831 -53.4296875 13.6484375 C-50.75241786 11.59011521 -48.09712773 9.50506426 -45.4453125 7.4140625 C-44.64802734 6.78757813 -43.85074219 6.16109375 -43.02929688 5.515625 C-41.46770212 4.28766097 -39.90893541 3.05608884 -38.35351562 1.8203125 C-24.60612356 -8.97157422 -14.59490043 -11.03173164 0 0 Z " fill="#A9A9A9" transform="translate(530,204)"/>
<path d="M0 0 C7.17365915 4.43250484 13.63988312 9.63989068 20.18359375 14.9296875 C24.56088047 18.46523041 29.01934174 21.88564644 33.48828125 25.3046875 C37.6774526 28.51253482 41.83766055 31.75746421 46 35 C52.18649361 39.81765226 58.38941188 44.61235007 64.609375 49.38671875 C68.67038084 52.51047564 72.70879942 55.66319496 76.75 58.8125 C82.72620253 63.46915802 88.7248514 68.094362 94.75 72.6875 C100.40939271 77.00329588 106.03419484 81.3584145 111.62207031 85.76635742 C116.39780962 89.53278401 121.19628953 93.26933009 126 97 C131.45060193 101.23354972 136.89117467 105.47902361 142.3125 109.75 C146.6866768 113.19541323 151.0811257 116.6121074 155.5 120 C161.78477801 124.8189656 168.01356022 129.70713895 174.23388672 134.60888672 C177.15371042 136.90874232 180.07699088 139.20419526 183 141.5 C186.45429037 144.21336594 189.90816051 146.92725356 193.359375 149.64453125 C200.66177776 155.39179268 207.98858448 161.10684726 215.32714844 166.80786133 C219.89551061 170.3583893 224.45411572 173.92074639 229 177.5 C234.23626111 181.62192025 239.48886103 185.72238146 244.75 189.8125 C245.87825195 190.68962646 245.87825195 190.68962646 247.02929688 191.58447266 C250.95062399 194.63208012 254.87336214 197.67786342 258.796875 200.72265625 C259.97878418 201.64050903 259.97878418 201.64050903 261.18457031 202.5769043 C262.66780384 203.72874054 264.15148647 204.87999883 265.63574219 206.03051758 C266.98722619 207.08024619 268.33089051 208.14015064 269.6650368 209.21182823 C271.98847823 211.04473589 271.98847823 211.04473589 274.56331384 212.63106728 C281.43385669 217.29600515 281.43385669 217.29600515 282.91745877 221.7613945 C283.26116414 225.10902507 283.28566774 228.32840593 283.20254517 231.69287109 C283.21108941 232.96152417 283.21963366 234.23017725 283.22843683 235.53727436 C283.25071696 239.0434416 283.21092707 242.54653339 283.16065621 246.0523088 C283.11735873 249.83815699 283.13209302 253.62384011 283.13967896 257.40986633 C283.14491563 263.9641206 283.1136162 270.51737729 283.05730057 277.07138062 C282.97593289 286.54711791 282.94997657 296.0223742 282.93742065 305.49842298 C282.91554924 320.87340812 282.84904119 336.24786188 282.75439453 351.62255859 C282.66256522 366.55514879 282.59180043 381.48759451 282.54931641 396.42041016 C282.54668917 397.34129 282.54406194 398.26216985 282.54135509 399.21095514 C282.52830445 403.83086718 282.51566743 408.45078023 282.50323606 413.07069397 C282.39961501 451.38093466 282.21529063 489.69019217 282 528 C252.63 528 223.26 528 193 528 C192.97812622 518.76684814 192.97812622 518.76684814 192.95581055 509.34716797 C192.90535763 488.95523609 192.83889129 468.56337927 192.76428509 448.17152214 C192.71946169 435.8142266 192.68001654 423.45695902 192.65356445 411.09960938 C192.63047483 400.31960892 192.596956 389.53969794 192.55129844 378.75976861 C192.52751308 373.06037168 192.50868866 367.36106257 192.50238609 361.66161728 C192.49626803 356.27879817 192.4760309 350.8962033 192.44572449 345.51346779 C192.43705052 343.55540471 192.43319907 341.5973122 192.43499184 339.63923073 C192.44737406 319.84519387 190.43581904 300.78388077 184 282 C183.79036621 281.3596582 183.58073242 280.71931641 183.36474609 280.05957031 C171.5742548 244.2433435 147.04650229 213.32821994 117 191 C116.17113281 190.37609375 115.34226562 189.7521875 114.48828125 189.109375 C87.68341938 169.63147877 56.60778809 158.65541937 24 154 C22.75605469 153.80792969 21.51210938 153.61585938 20.23046875 153.41796875 C-28.56564944 147.61359179 -79.47761469 162.92047795 -118 193 C-122.82699599 196.82644571 -127.46656535 200.83089496 -132 205 C-132.5460791 205.50080078 -133.0921582 206.00160156 -133.65478516 206.51757812 C-165.19457993 235.82123794 -188.14571817 279.78578947 -190.09847271 323.18870461 C-190.14052587 325.4398288 -190.15539216 327.68929692 -190.15821838 329.94081116 C-190.16315636 330.79379632 -190.16809434 331.64678148 -190.17318195 332.52561468 C-190.18843071 335.35830187 -190.196883 338.19096662 -190.20532227 341.02368164 C-190.21491074 343.06439406 -190.22492138 345.10510454 -190.23532104 347.14581299 C-190.26227119 352.6678187 -190.28333409 358.18983287 -190.30332303 363.71186757 C-190.32524383 369.48944072 -190.35260262 375.26698809 -190.37937927 381.04454041 C-190.42922394 391.97713565 -190.47419319 402.90974527 -190.51740164 413.84236854 C-190.57609426 428.62129888 -190.64233679 443.40019526 -190.70815182 458.17909527 C-190.81159778 481.45270728 -190.90497249 504.72634857 -191 528 C-220.7 528 -250.4 528 -281 528 C-281.17634127 488.88174237 -281.32406253 449.76385936 -281.40852264 410.64531806 C-281.41852837 406.02778621 -281.42888294 401.4102552 -281.43945312 396.79272461 C-281.44155161 395.87345143 -281.44365009 394.95417826 -281.44581217 394.00704832 C-281.48062954 379.11923569 -281.54370974 364.23167 -281.61722237 349.34400391 C-281.69201596 334.0696079 -281.73646625 318.79534128 -281.75270796 303.52076966 C-281.76368899 294.09421533 -281.79837882 284.66835897 -281.86333174 275.24201948 C-281.90559681 268.77933997 -281.91840614 262.31702165 -281.90801102 255.85421395 C-281.90288295 252.12435214 -281.91078014 248.39571042 -281.9536438 244.66606522 C-281.99978762 240.62146217 -281.98391437 236.57945887 -281.96203613 232.53465271 C-281.98533886 231.35663052 -282.0086416 230.17860834 -282.03265047 228.96488851 C-281.91863454 221.18537216 -281.91863454 221.18537216 -279.26479244 217.76095212 C-277.25714392 215.97963417 -275.23829422 214.47572015 -273 213 C-271.96617187 212.18015625 -270.93234375 211.3603125 -269.8671875 210.515625 C-268.38605469 209.39414062 -268.38605469 209.39414062 -266.875 208.25 C-265.74038756 207.38607012 -264.60629031 206.5214633 -263.47265625 205.65625 C-262.89789551 205.21796875 -262.32313477 204.7796875 -261.73095703 204.328125 C-258.90535658 202.16010435 -256.10899994 199.95535026 -253.3125 197.75 C-247.89144579 193.47868081 -242.45053733 189.23362777 -237 185 C-231.65509177 180.84789628 -226.3176181 176.68700304 -221 172.5 C-215.68238137 168.31299655 -210.34484789 164.15218198 -205 160 C-197.31203286 154.02685416 -189.64878722 148.02319602 -182 142 C-173.57943414 135.36905089 -165.13691374 128.7675038 -156.67285156 122.19213867 C-152.10448985 118.64161106 -147.54583587 115.07931469 -143 111.5 C-136.91029064 106.70506529 -130.79279083 101.94641301 -124.671875 97.19140625 C-120.10385976 93.64109508 -115.5455646 90.0790019 -111 86.5 C-103.46324551 80.56715971 -95.88902041 74.68278013 -88.31445312 68.79833984 C-84.54184368 65.86700639 -80.77097422 62.93343657 -77 60 C-72.45402154 56.46368851 -67.90762452 52.92792157 -63.359375 49.39453125 C-56.45537762 44.02985501 -49.55622425 38.65979489 -42.6875 33.25 C-37.34766953 29.04511079 -31.9705762 24.89121794 -26.578125 20.75390625 C-22.20586575 17.39420992 -17.85283228 14.00980519 -13.5 10.625 C-12.73397461 10.02969482 -11.96794922 9.43438965 -11.17871094 8.82104492 C-7.43186765 5.90577567 -3.6971723 2.97827769 0 0 Z " fill="#FBFBFB" transform="translate(511,251)"/>
<path d="M0 0 C0.76727921 -0.01261871 1.53455841 -0.02523743 2.3250885 -0.03823853 C47.53042535 -0.63706772 85.09795653 12.47710275 117.75 44.2734375 C132.89412388 59.16245363 143.66919774 77.71145665 150.5 97.7109375 C150.78206299 98.53247314 151.06412598 99.35400879 151.35473633 100.20043945 C156.16301693 114.94995154 157.18031102 128.6834665 157.09057617 144.07006836 C157.08965527 146.1544547 157.09006086 148.23884197 157.09167194 150.32322788 C157.09234418 155.86259268 157.07506379 161.40175972 157.05384064 166.94107819 C157.03664841 172.15510117 157.03594547 177.3690781 157.03381348 182.58312988 C157.01812432 197.79242488 156.97624052 213.00168375 156.9375 228.2109375 C156.875625 262.2215625 156.81375 296.2321875 156.75 331.2734375 C59.73 331.2734375 -37.29 331.2734375 -137.25 331.2734375 C-137.3325 297.3453125 -137.415 263.4171875 -137.5 228.4609375 C-137.53641602 217.77485107 -137.57283203 207.08876465 -137.61035156 196.07885742 C-137.62841797 182.96154785 -137.62841797 182.96154785 -137.6317749 176.80757141 C-137.63547956 172.5383206 -137.65038113 168.2692717 -137.67230225 164.00007629 C-137.69999667 158.53302037 -137.70791756 153.06625269 -137.7022891 147.59913313 C-137.70346384 145.60611018 -137.71124177 143.61307583 -137.72686052 141.62011373 C-137.8480064 125.39128366 -135.95994994 109.74294516 -130 94.5234375 C-129.70262939 93.74524658 -129.40525879 92.96705566 -129.09887695 92.1652832 C-115.15683088 56.69918369 -86.86902709 27.93043699 -52.25 12.2734375 C-35.61337122 5.13445502 -18.17977303 0.27421323 0 0 Z " fill="#FBFBFB" transform="translate(502.25,447.7265625)"/>
<path d="M0 0 C20.847847 15.11969371 34.97901089 36.96012453 39.55078125 62.4453125 C42.68656292 89.87658521 37.76525227 116.07264534 20.80078125 138.25 C18.58994887 141.01260209 16.32422757 143.70737304 14 146.375 C13.45988281 147.00019531 12.91976562 147.62539063 12.36328125 148.26953125 C-2.09669864 163.82220484 -24.66016229 174.46228646 -45.82568359 175.515625 C-75.1560573 176.41025284 -99.71637827 170.25612374 -121.62890625 149.7109375 C-140.90100796 130.72458359 -151.83387495 106.95433386 -152.24169922 79.82885742 C-152.32416972 53.58625777 -143.35849157 30.01760529 -124.90234375 11.2421875 C-123.93713206 10.28419997 -122.96984708 9.32829448 -122 8.375 C-121.23816406 7.61445313 -120.47632813 6.85390625 -119.69140625 6.0703125 C-106.71033006 -6.17239054 -90.26331573 -13.00022525 -73 -16.625 C-72.25492188 -16.80933594 -71.50984375 -16.99367187 -70.7421875 -17.18359375 C-46.22176562 -21.13061323 -20.11569118 -14.05014674 0 0 Z " fill="#FBFAFA" transform="translate(854,188.625)"/>
<path d="M0 0 C20.847847 15.11969371 34.97901089 36.96012453 39.55078125 62.4453125 C42.68656292 89.87658521 37.76525227 116.07264534 20.80078125 138.25 C18.58994887 141.01260209 16.32422757 143.70737304 14 146.375 C13.45988281 147.00019531 12.91976562 147.62539063 12.36328125 148.26953125 C-2.09669864 163.82220484 -24.66016229 174.46228646 -45.82568359 175.515625 C-75.1560573 176.41025284 -99.71637827 170.25612374 -121.62890625 149.7109375 C-140.90100796 130.72458359 -151.83387495 106.95433386 -152.24169922 79.82885742 C-152.32416972 53.58625777 -143.35849157 30.01760529 -124.90234375 11.2421875 C-123.93713206 10.28419997 -122.96984708 9.32829448 -122 8.375 C-121.23816406 7.61445313 -120.47632813 6.85390625 -119.69140625 6.0703125 C-106.71033006 -6.17239054 -90.26331573 -13.00022525 -73 -16.625 C-72.25492188 -16.80933594 -71.50984375 -16.99367187 -70.7421875 -17.18359375 C-46.22176562 -21.13061323 -20.11569118 -14.05014674 0 0 Z M-110.02270508 33.03417969 C-123.42832654 50.21814118 -127.91829968 68.90974037 -126 90.375 C-123.61914982 108.61578446 -113.27773628 123.93118132 -99.4296875 135.52734375 C-88.14380124 143.81938559 -75.07610097 149.52342094 -61 150.375 C-60.06929687 150.43945312 -59.13859375 150.50390625 -58.1796875 150.5703125 C-39.24876485 151.26801235 -21.9843917 143.94580698 -8 131.375 C-7.38898438 130.85679687 -6.77796875 130.33859375 -6.1484375 129.8046875 C4.88807896 119.77607208 13.1783788 103.6313218 14.17700195 88.73461914 C14.6725122 65.89574239 11.51162606 46.55173139 -4.71875 29.45629883 C-19.23251295 14.91013908 -36.67898008 8.07645475 -57 7.8125 C-77.63345479 7.95616972 -96.85090562 16.94045839 -110.02270508 33.03417969 Z " fill="#8C0F1D" transform="translate(854,188.625)"/>
<path d="M0 0 C4.92183755 2.67185467 8.25053894 6.2219717 11.875 10.375 C24.95892224 24.87540952 40.88189595 31.84375244 60.37109375 33.16015625 C77.38816384 33.74172031 94.56198883 28.53037133 108 18 C110.70392211 15.31152887 113.23057717 12.5435738 115.7109375 9.6484375 C123.81588145 0.27104502 123.81588145 0.27104502 128.70703125 -0.3359375 C134.97142077 -0.41473485 139.17929091 -0.45915591 144 4 C147.76274268 8.16952567 149.14701415 11.22551739 149.25 16.8125 C149.28867187 18.05966797 149.28867187 18.05966797 149.328125 19.33203125 C148.11346058 29.20840978 137.79903807 39.10992139 130.37109375 45.22265625 C104.6868795 64.47523859 76.39642577 71.45661717 44.32421875 67.5390625 C19.60662193 63.02564525 -3.4597153 49.32399699 -18.95703125 29.49609375 C-22.25837467 24.55567585 -23.92468594 20.38314559 -23.51953125 14.390625 C-22.33040274 8.9188457 -19.37101018 5.33757091 -15.4375 1.5 C-10.3938804 -0.70085219 -5.41349913 -0.95864047 0 0 Z " fill="#8C0F1D" transform="translate(449,640)"/>
<path d="M0 0 C7.41582874 4.60700157 10.34875781 10.95502859 12.55078125 19.203125 C14.60515422 29.12036597 12.79191246 38.68128363 7.39453125 47.30859375 C4.04301429 51.96903648 0.70563281 54.53822656 -4.79296875 56.37109375 C-11.51425542 57.13117463 -16.60067326 56.83755827 -22.1484375 52.78125 C-28.74080108 47.12841567 -32.1943364 38.83387973 -32.984375 30.3046875 C-33.45776184 20.79113915 -31.15500689 11.61957133 -24.98046875 4.24609375 C-17.62805964 -3.17439322 -9.49840276 -4.67638568 0 0 Z " fill="#8D101E" transform="translate(455.79296875,549.62890625)"/>
<path d="M0 0 C6.73437949 4.692855 11.1682246 11.40894505 12.984375 19.3828125 C14.06770069 29.6353175 13.31567255 39.07988314 7.37109375 47.73046875 C3.4380825 52.53554458 -0.20350576 55.8667102 -6.5546875 56.7265625 C-13.38220575 57.1027343 -17.81882659 55.83897455 -23.015625 51.3828125 C-29.16735731 45.23108019 -31.95309497 36.66324887 -32.203125 28.1328125 C-32.05122115 18.95781968 -29.70068068 10.40021766 -23.30859375 3.5546875 C-16.18158486 -2.84254052 -8.7223633 -4.83448819 0 0 Z " fill="#8C0F1D" transform="translate(588.015625,549.6171875)"/>
<path d="M0 0 C2.93861247 2.06375837 5.45142504 4.47865341 8 7 C13.73956608 12.28644244 20.56470654 15.18397657 28.375 15.5 C40.19634353 14.94978232 47.89262734 10.36577498 56 2 C58 0 58 0 61.8125 -0.4375 C65.40117947 -0.36572641 65.95024084 -0.04023081 68.9375 2.375 C71.0223186 5.02840549 71.87748815 6.28243057 72.4375 9.5625 C71.49489701 16.96866639 65.9372781 22.75866715 60.33203125 27.3671875 C47.85546965 36.1028705 34.94394846 38.39619686 20 37 C7.75668421 34.63626158 -3.04324038 27.49363984 -11 18 C-13.3907782 14.45005661 -13.98753038 12.71076851 -14.0625 8.4375 C-11.94168712 1.57604657 -7.00075318 -1.44843169 0 0 Z " fill="#8B0F1C" transform="translate(769,281)"/>
<path d="M0 0 C4.97475147 2.53430735 6.99024849 4.83645127 9 10 C9.43512194 13.39709938 9.44437817 16.7620099 9.43359375 20.18359375 C9.4388356 21.15732437 9.44407745 22.13105499 9.44947815 23.1342926 C9.4558834 25.18758188 9.4545808 27.24090793 9.44604492 29.29418945 C9.43753667 32.424009 9.46631509 35.55200119 9.49804688 38.68164062 C9.4996592 40.68229112 9.49908077 42.68294483 9.49609375 44.68359375 C9.51294472 46.07764687 9.51294472 46.07764687 9.53013611 47.49986267 C9.45680988 54.38650645 8.00752331 58.65830744 3.3125 63.875 C-1.52115494 66.22650781 -6.24045796 66.59758032 -11.3125 64.875 C-14.79140662 62.44785585 -17.1037926 59.7924148 -19 56 C-19.10970197 54.52079205 -19.15903009 53.03687232 -19.17700195 51.55371094 C-19.18983719 50.63225281 -19.20267242 49.71079468 -19.21589661 48.76141357 C-19.22328354 47.76249084 -19.23067047 46.76356812 -19.23828125 45.734375 C-19.246353 44.70822083 -19.25442474 43.68206665 -19.26274109 42.62481689 C-19.27658889 40.44927666 -19.28730792 38.27371464 -19.29516602 36.09814453 C-19.31235893 32.77724758 -19.35623722 29.45735115 -19.40039062 26.13671875 C-19.41051919 24.02344482 -19.41903478 21.91016243 -19.42578125 19.796875 C-19.44328934 18.80604919 -19.46079742 17.81522339 -19.47883606 16.79437256 C-19.46024296 10.85802132 -18.90394432 7.54855656 -15 3 C-10.44566777 -1.15311725 -5.79308351 -1.8250568 0 0 Z " fill="#8C111F" transform="translate(803,93)"/>
<path d="M0 0 C4.5926563 1.79712638 6.74740081 4.66166082 9 9 C9.9583506 15.58866038 7.29536547 19.77330495 3.61425781 24.94799805 C2.05710422 27.02547253 0.47274393 29.07858906 -1.125 31.125 C-2.2826357 32.61972691 -3.44018682 34.11451933 -4.59765625 35.609375 C-5.17016113 36.34607422 -5.74266602 37.08277344 -6.33251953 37.84179688 C-7.88172124 39.84691299 -9.41194711 41.86455642 -10.93359375 43.890625 C-11.38009277 44.48214355 -11.8265918 45.07366211 -12.28662109 45.68310547 C-13.48633244 47.2739971 -14.68273266 48.86738416 -15.87890625 50.4609375 C-18.57660066 53.69022178 -20.3752539 55.70548409 -24.5859375 56.46875 C-33.04558011 56.56353591 -33.04558011 56.56353591 -36.5625 53.75 C-40.41016677 49.40904262 -41.33849519 47.02579791 -41.27294922 41.09790039 C-40.81397806 37.57022673 -39.01083321 35.40639051 -36.875 32.625 C-36.43849121 32.0462915 -36.00198242 31.46758301 -35.55224609 30.87133789 C-34.05452047 28.89828772 -32.52811866 26.94958956 -31 25 C-29.78545411 23.42395045 -28.57195367 21.84709483 -27.359375 20.26953125 C-24.41560986 16.45314181 -21.45639058 12.64962824 -18.46972656 8.86669922 C-17.22554224 7.28646112 -15.99764446 5.69342076 -14.7734375 4.09765625 C-10.51631917 -0.93774582 -6.13539858 -0.61943928 0 0 Z " fill="#8B0F1C" transform="translate(903,124)"/>
<path d="M0 0 C5.04474373 4.31961407 8.87151793 9.26038735 12.76489258 14.61791992 C13.41796387 15.50334473 14.07103516 16.38876953 14.74389648 17.30102539 C16.61278582 19.83860416 18.47087403 22.38378465 20.32739258 24.93041992 C21.23157302 26.15884977 22.13640908 27.38679765 23.04223633 28.61401367 C30.32037902 38.52439604 30.32037902 38.52439604 29.32739258 45.93041992 C27.106545 50.28986146 24.90663099 53.09872456 20.32739258 54.93041992 C15.10839108 55.71327015 11.35062984 55.52516716 6.92285156 52.35986328 C3.58590249 49.37014074 1.14325261 45.63936806 -1.42260742 41.99291992 C-2.64928861 40.28633951 -3.87716058 38.58061443 -5.10620117 36.87573242 C-5.70674316 36.03816406 -6.30728516 35.2005957 -6.92602539 34.33764648 C-10.13830684 29.9103198 -13.513495 25.61215442 -16.87963867 21.30151367 C-20.50733565 16.50410177 -20.40915135 11.79794399 -19.67260742 5.93041992 C-18.0347754 2.47126432 -15.60468209 0.50981769 -12.36010742 -1.50708008 C-7.94108027 -2.43199274 -3.85963537 -2.46811598 0 0 Z " fill="#8B0F1C" transform="translate(703.672607421875,125.069580078125)"/>
<path d="M0 0 C2.16283429 0.47691504 4.32887044 0.93668129 6.49560547 1.39550781 C7.88775579 1.69917369 9.27969143 2.00382582 10.67138672 2.30957031 C11.91581543 2.58075684 13.16024414 2.85194336 14.44238281 3.13134766 C18.40215783 4.28137174 21.60174104 5.59372845 24.17138672 8.89550781 C26.56404821 13.68083079 27.35360119 16.76393241 25.77294922 22.09863281 C23.45206674 26.40884313 21.33374388 29.18946296 16.77294922 31.09863281 C11.4332736 31.3810195 6.64338378 30.66930971 1.46044922 29.55957031 C0.30162231 29.31456284 0.30162231 29.31456284 -0.88061523 29.06460571 C-2.50511321 28.71725214 -4.12872547 28.36573263 -5.75146484 28.01025391 C-8.21601107 27.47602584 -10.68565068 26.97269565 -13.15673828 26.46972656 C-14.74308574 26.12656414 -16.32903863 25.78157161 -17.91455078 25.43457031 C-18.64391846 25.29054779 -19.37328613 25.14652527 -20.12475586 24.99813843 C-25.65882293 23.73117963 -29.34536769 21.23882891 -33.22705078 17.09863281 C-35.21068753 13.13135931 -34.77456237 8.41180741 -34.22705078 4.09863281 C-27.7082116 -9.17372375 -11.213424 -2.48387241 0 0 Z " fill="#8C101D" transform="translate(664.22705078125,218.9013671875)"/>
<path d="M0 0 C3.42357102 2.85297585 5.83645009 5.54408234 6.63671875 10.0546875 C6.90009994 15.44946077 5.91137756 18.71884169 2.25 22.875 C-1.82770502 25.80936223 -6.06549759 26.87935882 -10.90234375 27.91796875 C-11.68009659 28.09129227 -12.45784943 28.26461578 -13.25917053 28.44319153 C-14.89798127 28.80622683 -16.53777633 29.16484381 -18.1784668 29.51928711 C-20.67832709 30.06051404 -23.17414578 30.61800994 -25.66992188 31.17773438 C-27.26801483 31.52962064 -28.86631583 31.88056369 -30.46484375 32.23046875 C-31.20564682 32.39604782 -31.94644989 32.56162689 -32.70970154 32.73222351 C-42.87472842 34.90456087 -42.87472842 34.90456087 -47.9375 32.125 C-52.04403318 28.83977346 -53.78914097 26.75889047 -54.6875 21.5625 C-54.99123425 17.5479256 -54.54362146 14.77498599 -52.17358398 11.47827148 C-46.62475078 5.22905392 -36.70423443 4.22376712 -28.9140625 2.58251953 C-26.7518157 2.12538387 -24.59477434 1.64796229 -22.4375 1.16796875 C-21.04192924 0.86597153 -19.64610336 0.56515038 -18.25 0.265625 C-16.37828125 -0.1360791 -16.37828125 -0.1360791 -14.46875 -0.54589844 C-9.51724433 -1.31697062 -4.73419538 -1.93671629 0 0 Z " fill="#8C0F1C" transform="translate(959.75,216.125)"/>
<path d="M0 0 C0.72920654 0.44561279 1.45841309 0.89122559 2.2097168 1.3503418 C3.70739548 2.27010036 5.20083861 3.19679189 6.68994141 4.13037109 C8.76701182 5.43231132 10.8562976 6.71203484 12.94921875 7.98828125 C24.78911661 15.32823323 24.78911661 15.32823323 27.875 21.5 C28.27726867 26.72949274 27.8037695 30.10684575 24.875 34.5 C21.07492022 37.93816742 17.83169599 39.17021597 12.68408203 39.07080078 C6.25733152 37.7648958 0.64343884 33.65475964 -4.875 30.25 C-6.18776859 29.46311698 -7.50156465 28.67794545 -8.81640625 27.89453125 C-24.82390709 18.27544025 -24.82390709 18.27544025 -27.125 11.5 C-27.41324402 6.77788467 -26.80623885 2.85641357 -23.875 -0.9375 C-16.01329715 -8.26317765 -8.12387096 -5.11270643 0 0 Z " fill="#8C0F1D" transform="translate(928.125,310.5)"/>
<path d="M0 0 C3.49996383 2.04164557 5.80555258 4.09089936 7 8 C7.45042231 13.58523668 7.25122574 17.23153558 4 22 C0.12197132 25.42709511 -2.96738491 26.67395498 -8.04296875 26.3828125 C-12.67411718 25.47691919 -15.29637944 22.99868725 -17.9375 19.25 C-19.62161448 14.09859101 -18.92869299 10.08955924 -16.75 5.1875 C-12.23274055 -0.45907431 -6.87758794 -1.02937583 0 0 Z " fill="#8B101C" transform="translate(773,238)"/>
<path d="M0 0 C3.91124845 1.99943658 6.33668039 4.9690723 8 9 C8.73651586 13.71027588 8.42246633 17.17015542 6.25 21.4375 C3.6641825 24.38245882 1.73125545 25.66718934 -2.11328125 26.40625 C-6.75399241 26.60407783 -9.38935043 26.1773017 -13 23.125 C-16.33324177 19.9306433 -17.17961277 17.86608268 -17.3125 13.25 C-17.27047528 8.40314903 -16.25698102 5.72226402 -13 2 C-8.75091594 -0.83272271 -4.98854595 -0.76806539 0 0 Z " fill="#8A0F1B" transform="translate(834,238)"/>
<path d="M0 0 C0.33 0 0.66 0 1 0 C1 5.61 1 11.22 1 17 C0.34 17 -0.32 17 -1 17 C-1.33 19.97 -1.66 22.94 -2 26 C-2.33 26 -2.66 26 -3 26 C-2.89049976 22.0410768 -2.75978332 18.08313674 -2.625 14.125 C-2.5940625 12.99707031 -2.563125 11.86914062 -2.53125 10.70703125 C-2.49257813 9.63066406 -2.45390625 8.55429687 -2.4140625 7.4453125 C-2.3826416 6.45031738 -2.3512207 5.45532227 -2.31884766 4.43017578 C-2 2 -2 2 0 0 Z " fill="#8C1D26" transform="translate(870,259)"/>
<path d="M0 0 C0.66 0.66 1.32 1.32 2 2 C-0.88537086 3.44268543 -3.53108551 3.02257965 -6.7109375 2.9375 C-8.96196841 2.99896159 -10.84541855 3.37035063 -13 4 C-13 3.01 -13 2.02 -13 1 C-8.30368284 -1.49491849 -5.06370175 -0.99613805 0 0 Z " fill="#891C22" transform="translate(920,306)"/>
<path d="M0 0 C0.99 0.66 1.98 1.32 3 2 C2.67 2.99 2.34 3.98 2 5 C0.35232753 4.71890887 -1.29313145 4.42481474 -2.9375 4.125 C-4.31228516 3.88136719 -4.31228516 3.88136719 -5.71484375 3.6328125 C-6.46894531 3.42398438 -7.22304688 3.21515625 -8 3 C-8.33 2.34 -8.66 1.68 -9 1 C-5.98131566 -0.50934217 -3.32702771 -0.17510672 0 0 Z " fill="#8C1C25" transform="translate(582,547)"/>
<path d="M0 0 C0 4.16534658 -1.32958964 5.85028521 -4 9 C-7.75 9.875 -7.75 9.875 -11 10 C-7.50640535 6.40365256 -3.88901869 3.16548033 0 0 Z " fill="#7F0C14" transform="translate(480,215)"/>
<path d="M0 0 C0.66 0 1.32 0 2 0 C1.67 1.32 1.34 2.64 1 4 C0.34 4 -0.32 4 -1 4 C-1 4.66 -1 5.32 -1 6 C-1.99 5.67 -2.98 5.34 -4 5 C-2.71937515 3.2925002 -1.38232443 1.62626404 0 0 Z " fill="#800D15" transform="translate(125,491)"/>
</svg>
